<svg viewBox="0 0 1024 1024" xmlns="http://www.w3.org/2000/svg" fill="#000000">
    <path
        d="M298.666667 170.666667c-50.133333 0-93.781333 34.176-102.656 83.541333C184.192 319.829333 170.666667 415.914667 170.666667 512s13.525333 192.170667 25.344 257.792C204.885333 819.157333 248.490667 853.333333 298.666667 853.333333c50.133333 0 93.781333-34.176 102.656-83.541333 11.818667-65.621333 25.344-161.706667 25.344-257.792s-13.525333-192.170667-25.344-257.792C392.448 204.842667 348.842667 170.666667 298.666667 170.666667z m426.666666 0c-50.133333 0-93.781333 34.176-102.656 83.541333C610.858667 319.829333 597.333333 415.914667 597.333333 512s13.525333 192.170667 25.344 257.792C631.552 819.157333 675.157333 853.333333 725.333333 853.333333c50.133333 0 93.781333-34.176 102.656-83.541333 11.818667-65.621333 25.344-161.706667 25.344-257.792s-13.525333-192.170667-25.344-257.792C819.114667 204.842667 775.509333 170.666667 725.333333 170.666667z">
    </path>
</svg>