<svg viewBox="0 0 1024 1024" xmlns="http://www.w3.org/2000/svg" fill="#ffffff">
    <path
        d="M868.944842 122.88H155.109053A75.398737 75.398737 0 0 0 79.009684 198.117053v526.120421c0 41.498947 33.630316 75.129263 75.129263 75.129263H474.273684v56.427789H326.009263a40.043789 40.043789 0 0 0-39.343158 31.797895 37.187368 37.187368 0 0 0 37.456842 43.331368h374.460632c19.078737 0 35.570526-13.419789 39.343158-32.067368a36.971789 36.971789 0 0 0-37.456842-43.115789H549.672421v-56.373895h319.272421a75.129263 75.129263 0 0 0 75.991579-75.129263V198.063158A75.344842 75.344842 0 0 0 869.861053 122.88h-0.916211z m-112.64 375.915789h-123.957895l-43.331368 127.568843a14.982737 14.982737 0 0 1-26.246737 3.98821L427.493053 443.014737l-17.084632 43.115789a16.599579 16.599579 0 0 1-16.815158 11.425685h-142.821052a40.259368 40.259368 0 0 1-39.289264-32.067369 37.187368 37.187368 0 0 1 37.456842-43.978105h105.310316l43.11579-108.867369a15.198316 15.198316 0 0 1 26.408421-3.718736l131.503158 180.224 18.755368-56.158316a18.000842 18.000842 0 0 1 16.869053-13.365895h161.68421c19.078737 0.053895 35.462737 13.473684 39.343158 32.067368a36.055579 36.055579 0 0 1-35.570526 46.834527v0.215579z">
    </path>
</svg>