<svg viewBox="0 0 1024 1024" xmlns="http://www.w3.org/2000/svg">
    <path
        d="M503.186286 454.180571a111.469714 111.469714 0 0 1-49.042286-10.532571l-268.397714-135.314286a46.884571 46.884571 0 0 1-29.037715-40.777143 47.981714 47.981714 0 0 1 29.257143-41.801142L457.142857 84.662857A114.102857 114.102857 0 0 1 509.037714 73.142857a111.616 111.616 0 0 1 49.078857 10.496l268.361143 135.314286a46.957714 46.957714 0 0 1 29.257143 40.777143 47.945143 47.945143 0 0 1-29.257143 41.764571l-271.213714 141.092572a114.761143 114.761143 0 0 1-51.931429 11.556571z m302.811428-193.609142l0.694857-0.365715zM447.451429 950.857143a64.548571 64.548571 0 0 1-28.818286-7.314286l-0.548572-0.329143-239.798857-128.914285A90.331429 90.331429 0 0 1 128 741.668571v-347.428571a40.228571 40.228571 0 0 1 41.472-42.020571 64.914286 64.914286 0 0 1 28.818286 7.314285l0.621714 0.329143 239.762286 128.914286a90.331429 90.331429 0 0 1 50.322285 72.521143v347.428571A40.228571 40.228571 0 0 1 447.488 950.857143z m128.987428 0a40.228571 40.228571 0 0 1-41.508571-42.020572v-347.428571a90.441143 90.441143 0 0 1 50.322285-72.557714l240.384-129.206857a65.024 65.024 0 0 1 28.818286-7.314286 40.228571 40.228571 0 0 1 41.545143 41.837714v347.428572a90.294857 90.294857 0 0 1-50.358857 72.521142L605.257143 943.542857a64.146286 64.146286 0 0 1-28.854857 7.314286z">
    </path>
</svg>