<svg viewBox="0 0 1024 1024" xmlns="http://www.w3.org/2000/svg">
    <path
        d="M512.62137799 84.91887843c-16.07816533 0-32.19516643 0.97090333-48.15682332 2.83503958-38.71963933 4.38848512-75.84699733 14.0198491-110.721858 28.0396982 0 0 287.62051357 284.00875179 295.271234 294.57218446V107.48268089a424.78978845 424.78978845 0 0 0-136.39255268-22.56380246zM813.05782045 208.3013211c-11.534336-11.49550023-23.61237845-22.13660445-36.11761778-32.00098531a424.47909888 424.47909888 0 0 0-98.06127446-58.25422222s2.097152 403.62408733 0 416.51768888l214.68622734-214.18135779a423.31401443 423.31401443 0 0 0-80.5073351-112.08112356zM907.313152 353.97571357s-284.5524571 286.96029867-295.23239822 294.61101909h303.58217045a420.8673371 420.8673371 0 0 0 22.64147399-136.08186311c0-16.31118222-1.048576-32.35051179-2.91271111-48.07915065a419.4304 419.4304 0 0 0-28.07853511-110.45000533z m-422.14892999 326.4954971l214.6862262 214.14252088a422.65380067 422.65380067 0 0 0 112.43064889-80.31315398c11.45666333-11.45666333 22.09776867-23.53470578 32.00098645-35.96227357a423.70237667 423.70237667 0 0 0 58.37073067-97.9059291s-404.51731911 2.097152-417.48859221 0zM375.0249051 613.20700245v302.88311865a423.31401443 423.31401443 0 0 0 136.39255268 22.56380245c16.23350955 0 32.35051179-1.048576 48.11798755-2.83503843a424.09073778 424.09073778 0 0 0 110.68302222-28.07853511s-287.54284089-283.89224334-295.19356245-294.53334756z m-30.21452288-126.33399068l-214.60855467 214.14252089A419.27505579 419.27505579 0 0 0 246.74910777 845.21415111a421.64406045 421.64406045 0 0 0 98.13894713 58.25422222s-2.21366045-403.62408733-0.11650845-416.55652466zM100.33683001 401.31697778a422.14892999 422.14892999 0 0 0-14.60239246 109.94513579c0 16.23350955 1.00974023 32.31167488 2.87387534 48.04031488 4.38848512 38.68080355 13.98101333 75.73048889 28.11737088 110.41116956 0 0 284.51362133-286.9214629 295.15472668-294.53334756H108.33707577c-2.91271111 8.54395221-5.55356957 17.28208555-7.96140999 26.09789156zM298.01282333 143.44495445a422.53729223 422.53729223 0 0 0-88.3134009 67.41955243 423.43052288 423.43052288 0 0 0-90.48822442 133.98471111s404.63382755-2.17482467 417.52742798-0.11650844L322.09123555 130.62902557c-8.15559111 4.07779555-16.23350955 8.31093533-24.07841222 12.89360042z">
    </path>
</svg>