<svg viewBox="0 0 1024 1024" xmlns="http://www.w3.org/2000/svg">
  <path
    d="M682.666667 74.666667A32 32 0 0 1 714.666667 106.666667v85.333333H810.666667a85.333333 85.333333 0 0 1 85.333333 85.333333v554.666667a85.333333 85.333333 0 0 1-85.333333 85.333333H213.333333a85.333333 85.333333 0 0 1-85.333333-85.333333V277.333333a85.333333 85.333333 0 0 1 85.333333-85.333333h96V106.666667a32 32 0 0 1 64 0v85.333333h277.333334V106.666667A32 32 0 0 1 682.666667 74.666667z m-170.666667 576h-170.666667l-3.072 0.149333A32 32 0 0 0 341.333333 714.666667h170.666667l3.072-0.149334A32 32 0 0 0 512 650.666667z m170.666667-149.333334H341.333333l-3.072 0.149334A32 32 0 0 0 341.333333 565.333333h341.333334l3.072-0.149333A32 32 0 0 0 682.666667 501.333333z">
  </path>
</svg>
