<svg viewBox="0 0 1024 1024" xmlns="http://www.w3.org/2000/svg">
    <path
        d="M542.208 873.472l-67.413333 22.186667c-169.386667 54.613333-258.56 8.96-313.6-160.426667l-54.613334-168.533333c-54.613333-169.386667-9.386667-258.986667 160-313.6l26.666667-8.96a21.333333 21.333333 0 0 1 27.136 26.453333l-9.6 31.146667-41.813333 178.773333c-46.933333 200.96 21.76 311.893333 222.72 359.68l48.981333 11.392a11.434667 11.434667 0 0 1 1.536 21.888z">
    </path>
    <path
        d="M674.944 828.885333a341.333333 341.333333 0 0 1-32.384-1.621333 447.488 447.488 0 0 1-69.12-11.52l-71.637333-17.066667c-91.136-21.632-147.712-54.442667-178.005334-103.210666s-34.56-114.133333-13.184-205.312l41.813334-178.773334a443.733333 443.733333 0 0 1 31.573333-93.866666A178.218667 178.218667 0 0 1 559.317333 106.666667a444.970667 444.970667 0 0 1 102.016 13.610666l71.253334 16.64c91.434667 21.333333 148.138667 54.144 178.517333 103.04s34.474667 114.176 13.056 205.44l-41.813333 178.346667a316.245333 316.245333 0 0 1-73.856 155.434667 179.2 179.2 0 0 1-133.546667 49.706666z m-178.005333-331.562666a31.914667 31.914667 0 0 0-7.978667 62.848l124.202667 31.616h1.194666a48.384 48.384 0 0 0 6.912 0.682666 31.786667 31.786667 0 0 0 7.68-62.72l-124.16-31.616a32.341333 32.341333 0 0 0-7.850666-0.810666z m42.24-165.12a31.914667 31.914667 0 0 0-7.978667 62.805333l206.933333 52.48h1.109334a49.365333 49.365333 0 0 0 6.954666 0.682667 31.829333 31.829333 0 0 0 31.189334-23.893334 32.341333 32.341333 0 0 0-3.882667-25.002666 30.677333 30.677333 0 0 0-19.626667-13.824l-206.848-52.309334a32.341333 32.341333 0 0 0-7.850666-0.938666z">
    </path>
</svg>