<svg viewBox="0 0 1024 1024" xmlns="http://www.w3.org/2000/svg">
    <path
        d="M949.312 514.432c0 93.44 0 166.912-7.68 224.192-7.872 58.752-24.384 105.344-61.056 141.952-36.608 36.672-83.2 53.12-141.952 61.056-57.28 7.68-130.688 7.68-224.192 7.68h-4.864c-93.44 0-166.912 0-224.192-7.68-58.752-7.872-105.344-24.384-141.952-61.056-36.672-36.608-53.12-83.2-61.056-141.952-7.68-57.28-7.68-130.688-7.68-224.192v-4.864c0-93.44 0-166.912 7.68-224.192 7.872-58.752 24.384-105.344 61.056-141.952 36.608-36.672 83.2-53.12 141.952-61.056 57.28-7.68 130.688-7.68 224.192-7.68h4.864c93.44 0 166.912 0 224.192 7.68 58.752 7.872 105.344 24.448 141.952 61.056 36.608 36.608 53.12 83.2 61.056 141.952 7.68 57.28 7.68 130.688 7.68 224.192v4.864zM768 362.688A42.688 42.688 0 0 0 725.312 320H460.48a106.688 106.688 0 1 0 0 85.312h264.832A42.688 42.688 0 0 0 768 362.688z m0 298.624a106.688 106.688 0 0 0-204.48-42.624H298.688a42.688 42.688 0 1 0 0 85.312h264.832A106.688 106.688 0 0 0 768 661.312z">
    </path>
</svg>