<svg viewBox="0 0 1024 1024" xmlns="http://www.w3.org/2000/svg">
  <path
    d="M853.333333 682.666667a85.333333 85.333333 0 1 1 0 170.666666 85.333333 85.333333 0 0 1 0-170.666666z m-256 0a85.333333 85.333333 0 1 1 0 170.666666H170.666667a85.333333 85.333333 0 1 1 0-170.666666h426.666666z m-85.333333-256a85.333333 85.333333 0 1 1 0 170.666666 85.333333 85.333333 0 0 1 0-170.666666z m341.333333 0a85.333333 85.333333 0 1 1 0 170.666666h-85.333333a85.333333 85.333333 0 1 1 0-170.666666h85.333333zM256 426.666667a85.333333 85.333333 0 1 1 0 170.666666H170.666667a85.333333 85.333333 0 1 1 0-170.666666h85.333333zM170.666667 170.666667a85.333333 85.333333 0 1 1 0 170.666666 85.333333 85.333333 0 0 1 0-170.666666z m682.666666 0a85.333333 85.333333 0 1 1 0 170.666666H384a85.333333 85.333333 0 1 1 0-170.666666h469.333333z">
  </path>
</svg>
