<svg viewBox="0 0 1024 1024" xmlns="http://www.w3.org/2000/svg" fill="#f4af41">
    <path
        d="M833.44384 101.00736h-64.5632v197.89312c0 95.8976-56.69888 168.448-178.28352 225.24928 126.208 58.59328 179.29216 130.57024 179.29216 237.95712 0 69.94944-0.35328 128.62976-0.59392 160.88064h64.14848c17.69472 0 32.0256 13.1328 32.0256 29.38368 0 16.23552-14.33088 29.38368-32.0256 29.38368H190.55616c-17.69472 0-32.0256-13.14816-32.0256-29.38368 0-16.25088 14.33088-29.38368 32.0256-29.38368h66.01728c-0.24064-32.25088-0.59392-90.9312-0.59392-160.88064 0-107.38688 52.34688-179.36384 178.34496-237.95712-121.3696-56.80128-177.3312-129.35168-177.3312-225.24928V101.00736H190.55616c-17.69472 0-32.0256-13.1328-32.0256-29.38368 0-16.23552 14.33088-29.38368 32.0256-29.38368h642.88768c17.69472 0 32.0256 13.14816 32.0256 29.38368 0 16.25088-14.33088 29.38368-32.0256 29.38368z">
    </path>
</svg>