<svg viewBox="0 0 1066 1024" xmlns="http://www.w3.org/2000/svg" fill="#fff">
    <path
        d="M661.333333 1002.666667c-16.384 0-32.768-6.229333-45.269333-18.730667l-85.333333-85.333333A63.957333 63.957333 0 0 1 576 789.333333h85.333333c152.917333 0 277.333333-124.416 277.333334-277.333333s-124.416-277.333333-277.333334-277.333333a64 64 0 1 1 0-128c223.488 0 405.333333 181.845333 405.333334 405.333333 0 203.562667-150.869333 372.565333-346.666667 401.066667a64 64 0 0 1-58.666667 89.6zM405.333333 917.333333C181.845333 917.333333 0 735.488 0 512c0-203.562667 150.869333-372.565333 346.666667-401.066667A64 64 0 0 1 450.602667 40.106667l85.333333 85.333333A63.957333 63.957333 0 0 1 490.666667 234.666667h-85.333334C252.416 234.666667 128 359.082667 128 512s124.416 277.333333 277.333333 277.333333a64 64 0 1 1 0 128z">
    </path>
    <path
        d="M533.333333 704A64 64 0 0 1 469.333333 640v-153.002667a64.042667 64.042667 0 0 1-49.962666-117.589333l85.333333-42.666667A64.042667 64.042667 0 0 1 597.333333 384v256a64 64 0 0 1-64 64z">
    </path>
</svg>